# Blender v2.71 (sub 0) OBJ File: ''
# www.blender.org
o Cube
v 1.000000 -0.500000 -0.500000
v 1.000000 -0.500000 0.500000
v -1.000000 -0.500000 0.500000
v -1.000000 -0.500000 -0.500000
v 1.000000 0.500000 -0.500000
v 1.000000 0.500000 0.500000
v -1.000000 0.500000 0.500000
v -1.000000 0.500000 -0.500000
vn 0.000000 -1.000000 0.000000
vn 0.000000 1.000000 0.000000
vn 1.000000 0.000000 0.000000
vn 0.000000 0.000000 1.000000
vn -1.000000 0.000000 0.000000
vn 0.000000 0.000000 -1.000000
s off
f 2//1 3//1 4//1
f 8//2 7//2 6//2
f 5//3 6//3 2//3
f 6//4 7//4 3//4
f 7//5 8//5 4//5
f 1//6 4//6 8//6
f 1//1 2//1 4//1
f 5//2 8//2 6//2
f 1//3 5//3 2//3
f 2//4 6//4 3//4
f 3//5 7//5 4//5
f 5//6 1//6 8//6
o Cube.002
v 2.000000 -2.500000 -0.500000
v 2.000000 -2.500000 0.500000
v 1.000000 -2.500000 0.500000
v 1.000000 -2.500000 -0.500000
v 2.000000 2.500000 -0.500000
v 2.000000 2.500000 0.500000
v 1.000000 2.500000 0.500000
v 1.000000 2.500000 -0.500000
vn 0.000000 -1.000000 0.000000
vn 0.000000 1.000000 0.000000
vn 1.000000 0.000000 0.000000
vn 0.000000 0.000000 1.000000
vn -1.000000 0.000000 0.000000
vn 0.000000 0.000000 -1.000000
s off
f 10//7 11//7 12//7
f 16//8 15//8 14//8
f 13//9 14//9 10//9
f 14//10 15//10 11//10
f 15//11 16//11 12//11
f 9//12 12//12 16//12
f 9//7 10//7 12//7
f 13//8 16//8 14//8
f 9//9 13//9 10//9
f 10//10 14//10 11//10
f 11//11 15//11 12//11
f 13//12 9//12 16//12
o Cube.001_Cube.003
v -1.000000 -2.500000 -0.500000
v -1.000000 -2.500000 0.500000
v -2.000000 -2.500000 0.500000
v -2.000000 -2.500000 -0.500000
v -1.000000 2.500000 -0.500000
v -1.000000 2.500000 0.500000
v -2.000000 2.500000 0.500000
v -2.000000 2.500000 -0.500000
vn 0.000000 -1.000000 0.000000
vn 0.000000 1.000000 0.000000
vn 1.000000 0.000000 0.000000
vn 0.000000 0.000000 1.000000
vn -1.000000 0.000000 0.000000
vn 0.000000 0.000000 -1.000000
s off
f 18//13 19//13 20//13
f 24//14 23//14 22//14
f 21//15 22//15 18//15
f 22//16 23//16 19//16
f 23//17 24//17 20//17
f 17//18 20//18 24//18
f 17//13 18//13 20//13
f 21//14 24//14 22//14
f 17//15 21//15 18//15
f 18//16 22//16 19//16
f 19//17 23//17 20//17
f 21//18 17//18 24//18
