# Blender v2.57 (sub 1) OBJ File: ''
# www.blender.org
mtllib cone.mtl
o Cone
v 0.000000 0.041568 -0.340447
v 0.066418 0.041568 -0.333905
v 0.130283 0.041568 -0.314532
v 0.189142 0.041568 -0.283071
v 0.240732 0.041568 -0.240732
v 0.283071 0.041568 -0.189142
v 0.314532 0.041568 -0.130283
v 0.333905 0.041568 -0.066418
v 0.340447 0.041568 -0.000000
v 0.333905 0.041568 0.066418
v 0.314532 0.041568 0.130283
v 0.283071 0.041568 0.189142
v 0.240732 0.041568 0.240732
v 0.189142 0.041568 0.283071
v 0.130283 0.041568 0.314532
v 0.066418 0.041568 0.333905
v -0.000000 0.041568 0.340447
v -0.066418 0.041568 0.333905
v -0.130284 0.041568 0.314532
v -0.189142 0.041568 0.283071
v -0.240732 0.041568 0.240732
v -0.283071 0.041568 0.189142
v -0.314532 0.041568 0.130283
v -0.333905 0.041568 0.066418
v -0.340447 0.041568 -0.000000
v -0.333905 0.041568 -0.066418
v -0.314532 0.041568 -0.130284
v -0.283071 0.041568 -0.189142
v -0.240732 0.041568 -0.240733
v -0.189142 0.041568 -0.283071
v -0.130283 0.041568 -0.314532
v -0.066417 0.041568 -0.333905
v 0.000000 0.722461 -0.000000
v 0.000000 0.041568 -0.000000
vn 0.087754 0.445488 -0.890977
vn 0.259888 0.445488 -0.856737
vn 0.422036 0.445488 -0.789573
vn 0.567965 0.445488 -0.692067
vn 0.692067 0.445488 -0.567964
vn 0.789573 0.445488 -0.422036
vn 0.856737 0.445488 -0.259888
vn 0.890977 0.445488 -0.087754
vn 0.890977 0.445488 0.087753
vn 0.856737 0.445488 0.259888
vn 0.789573 0.445488 0.422036
vn 0.692067 0.445488 0.567964
vn 0.567964 0.445488 0.692067
vn 0.422036 0.445488 0.789573
vn 0.259888 0.445488 0.856737
vn 0.087753 0.445488 0.890977
vn -0.087754 0.445488 0.890977
vn -0.259889 0.445488 0.856737
vn -0.422036 0.445488 0.789573
vn -0.567965 0.445488 0.692067
vn -0.692067 0.445488 0.567964
vn -0.789574 0.445488 0.422035
vn -0.856737 0.445488 0.259887
vn -0.890977 0.445488 0.087753
vn -0.890977 0.445488 -0.087755
vn -0.856737 0.445488 -0.259889
vn -0.789573 0.445488 -0.422037
vn -0.692066 0.445488 -0.567966
vn -0.567964 0.445488 -0.692067
vn -0.422034 0.445488 -0.789574
vn -0.259887 0.445488 -0.856737
vn -0.087753 0.445488 -0.890977
vn -0.000000 -1.000000 0.000000
usemtl (null)
s off
f 2//1 1//1 33//1
f 33//2 3//2 2//2
f 33//3 4//3 3//3
f 33//4 5//4 4//4
f 33//5 6//5 5//5
f 33//6 7//6 6//6
f 33//7 8//7 7//7
f 33//8 9//8 8//8
f 33//9 10//9 9//9
f 33//10 11//10 10//10
f 33//11 12//11 11//11
f 33//12 13//12 12//12
f 33//13 14//13 13//13
f 33//14 15//14 14//14
f 33//15 16//15 15//15
f 33//16 17//16 16//16
f 33//17 18//17 17//17
f 33//18 19//18 18//18
f 33//19 20//19 19//19
f 33//20 21//20 20//20
f 33//21 22//21 21//21
f 33//22 23//22 22//22
f 33//23 24//23 23//23
f 33//24 25//24 24//24
f 33//25 26//25 25//25
f 33//26 27//26 26//26
f 33//27 28//27 27//27
f 33//28 29//28 28//28
f 33//29 30//29 29//29
f 33//30 31//30 30//30
f 33//31 32//31 31//31
f 33//32 1//32 32//32
f 34//33 1//33 2//33
f 34//33 2//33 3//33
f 34//33 3//33 4//33
f 34//33 4//33 5//33
f 34//33 5//33 6//33
f 34//33 6//33 7//33
f 34//33 7//33 8//33
f 34//33 8//33 9//33
f 34//33 9//33 10//33
f 34//33 10//33 11//33
f 34//33 11//33 12//33
f 34//33 12//33 13//33
f 34//33 13//33 14//33
f 34//33 14//33 15//33
f 34//33 15//33 16//33
f 34//33 16//33 17//33
f 34//33 17//33 18//33
f 34//33 18//33 19//33
f 34//33 19//33 20//33
f 34//33 20//33 21//33
f 34//33 21//33 22//33
f 34//33 22//33 23//33
f 34//33 23//33 24//33
f 34//33 24//33 25//33
f 34//33 25//33 26//33
f 34//33 26//33 27//33
f 34//33 27//33 28//33
f 34//33 28//33 29//33
f 34//33 29//33 30//33
f 34//33 30//33 31//33
f 34//33 31//33 32//33
f 32//33 1//33 34//33